<svg width="192" height="64" viewBox="0 0 192 64" fill="none" xmlns="http://www.w3.org/2000/svg">
<path d="M183.75 23.136V42.2744C183.75 43.1748 183.572 44.0664 183.228 44.8983C182.883 45.7302 182.378 46.4861 181.741 47.1227C181.105 47.7594 180.349 48.2645 179.517 48.6091C178.685 48.9536 177.794 49.131 176.893 49.131H163.192C161.719 49.1325 160.285 48.6582 159.103 47.7788L154.231 52.6549C156.719 54.808 159.902 55.99 163.192 55.9834H176.922C178.725 55.9834 180.511 55.6282 182.176 54.9383C183.842 54.2483 185.356 53.2369 186.631 51.962C187.906 50.6871 188.917 49.1735 189.607 47.5078C190.297 45.842 190.652 44.0566 190.652 42.2536V21.7298C190.646 20.1441 190.365 18.5715 189.82 17.0824L183.75 23.136Z" fill="black"/>
<path d="M156.319 40.8682V21.7298C156.317 20.8265 156.493 19.9318 156.838 19.0969C157.183 18.262 157.689 17.5035 158.328 16.8648C158.966 16.2261 159.725 15.7199 160.56 15.3753C161.395 15.0307 162.289 14.8544 163.193 14.8566H176.922C178.394 14.8545 179.828 15.3288 181.008 16.2087L185.855 11.3284C183.366 9.17665 180.184 7.99487 176.893 8.00002H163.193C159.551 8.00002 156.059 9.44654 153.484 12.0214C150.909 14.5962 149.463 18.0884 149.463 21.7298V42.2869C149.463 43.8665 149.735 45.4342 150.266 46.9217L156.319 40.8682Z" fill="black"/>
<path d="M114.539 44.3921C115.825 45.6775 116.548 47.4209 116.549 49.2391V56H109.692V49.2391L97.348 36.899L102.199 32.0479L114.539 44.3921Z" fill="black"/>
<path d="M116.549 8L82.2619 42.2869L116.549 8H106.851L82.2619 32.5887V8H75.4054V56H82.2619V42.2869" fill="black"/>
<path d="M25.3501 56H18.4894V14.8565H1.34802V8H42.4915V14.8565H25.3501V56Z" fill="black"/>
</svg>
